<?xml version="1.0" encoding="utf-8"?>
<!-- Generator: Adobe Illustrator 19.0.1, SVG Export Plug-In . SVG Version: 6.00 Build 0)  -->
<!DOCTYPE svg PUBLIC "-//W3C//DTD SVG 1.1//EN" "http://www.w3.org/Graphics/SVG/1.1/DTD/svg11.dtd">
<svg version="1.1" id="Layer_1" xmlns="http://www.w3.org/2000/svg" xmlns:xlink="http://www.w3.org/1999/xlink" x="0px" y="0px"
	 viewBox="54 88.7 407.4 124.3" style="enable-background:new 54 88.7 407.4 124.3;" xml:space="preserve">
<style type="text/css">
	.st0{fill:#787878;}
	.st1{fill:#FFFFFF;}
</style>
<g>
	<g>
		<path class="st0" d="M187.6,152.8c-1-3.7-2.6-7-4.8-10.1c-2.2-3.1-5.1-5.6-8.6-7.6c-3.5-2-7.9-3-12.9-3c-4.4,0-10.1,1.2-12.9,2.9
			c-2.9,1.7-3.2,2.6-4.9,3.6H143v-4h-14v76h17v-24.4c0,0.5,0.2,1.2,1.1,2s1.6,1.6,3,2.3c1.4,0.8,2.8,1.4,4.7,2
			c1.9,0.6,4,0.8,6.6,0.8c4.1,0,7.7-0.8,11.1-2.4c3.4-1.6,6.3-3.7,8.8-6.4c2.5-2.7,4.4-5.9,5.8-9.5c1.4-3.6,2.1-7.5,2.1-11.6
			C189.1,160,188.6,156.5,187.6,152.8z M171,168.1c-0.6,1.8-1.6,3.3-2.8,4.7c-1.2,1.4-2.7,2.5-4.5,3.3c-1.8,0.8-3.8,1.2-6,1.2
			c-2.3,0-4.3-0.4-6-1.2c-1.8-0.8-3.2-1.9-4.5-3.3c-1.2-1.4-2.2-2.9-2.8-4.7s-1-3.5-1-5.3c0-1.7,0.3-3.4,0.9-5.2
			c0.6-1.7,1.5-3.3,2.7-4.7c1.2-1.4,2.7-2.6,4.5-3.4s3.9-1.3,6.2-1.3c2.3,0,4.4,0.5,6.2,1.3s3.3,2.1,4.5,3.4c1.2,1.4,2.1,3,2.7,4.7
			s0.9,3.4,0.9,5.2C172,164.6,171.6,166.3,171,168.1z"/>
		<path class="st0" d="M240,134.6v4h-1.2c-0.6,0-1.3-1-2.2-1.9c-0.9-0.9-2-1.4-3.4-2.2c-1.4-0.8-3-1.2-4.8-1.8
			c-1.9-0.5-3.9-0.7-6.3-0.7c-3.9,0-7.5,0.8-11,2.2c-3.5,1.4-6.5,3.5-9.1,6.1c-2.6,2.6-4.7,5.9-6.3,9.6c-1.6,3.8-2.4,8-2.4,12.7
			c0,4.1,0.6,8,2,11.7c1.3,3.7,3.2,6.9,5.6,9.7c2.4,2.8,5.4,5.1,9,6.7c3.6,1.6,7.6,2.5,12.2,2.5c1.6,0,3.3-0.2,5-0.5
			s3.3-0.8,4.8-1.5c1.5-0.7,2.9-1.8,4-2.8s2.1-2.9,2.9-3.9h1.2v6h17v-56L240,134.6L240,134.6z M238.4,167.3
			c-0.5,1.7-1.3,3.3-2.4,4.8c-1.1,1.5-2.6,2.7-4.4,3.7c-1.8,1-4.1,1.5-6.8,1.5c-2.6,0-4.8-0.5-6.6-1.5c-1.8-1-3.2-2.2-4.4-3.7
			c-1.1-1.5-2-3-2.5-4.7c-0.5-1.7-0.8-3.2-0.8-4.5c0-1.7,0.3-3.3,0.8-5.1c0.6-1.7,1.4-3.3,2.6-4.7c1.2-1.4,2.6-2.6,4.4-3.6
			c1.8-0.9,3.9-1.4,6.3-1.4c2.4,0,4.5,0.4,6.3,1.3c1.8,0.9,3.3,2,4.5,3.4s2.1,3,2.7,4.7c0.6,1.7,0.9,3.4,0.9,5.1
			C239.1,164.1,238.8,165.6,238.4,167.3z"/>
		<path class="st0" d="M293.2,133.1c-1.7,0.6-3.3,1.3-4.4,2.1c-1.1,0.8-2.1,0.9-2.7,1.8c-0.6,0.9-1.2,1.6-1.6,1.6H284v-4h-15v56h17
			v-30.7c0-2.1,0-3.9,0.7-5.3c0.6-1.4,1.4-2.4,2.6-3.2c1.2-0.8,3.1-1.3,4.8-1.6c1.6-0.3,3.9-0.4,5.9-0.5v-17.2
			C297,132.2,294.9,132.5,293.2,133.1z"/>
		<path class="st0" d="M307,116.3v61.9c0,13.1,0,12.4,0,12.4h16c0,0,0-62,0-65.5c0-10.7,0-14.2,0-14.2L307,116.3z"/>
		<path class="st0" d="M376,134.6v4h-0.9c-0.5,0-1.3-1-2.2-1.9c-0.9-0.9-2-1.4-3.4-2.2c-1.4-0.8-3-1.2-4.8-1.8
			c-1.9-0.5-4-0.7-6.3-0.7c-3.9,0-7.5,0.8-11,2.2c-3.5,1.4-6.5,3.5-9.1,6.1c-2.6,2.6-4.7,5.9-6.3,9.6c-1.6,3.8-2.4,8-2.4,12.7
			c0,4.1,0.6,8,2,11.7c1.3,3.7,3.2,6.9,5.6,9.7c2.4,2.8,5.4,5.1,9,6.7s7.6,2.5,12.2,2.5c1.6,0,3.3-0.2,5-0.5
			c1.7-0.3,3.3-0.8,4.8-1.5c1.5-0.7,2.9-1.8,4-2.8c1.2-1,2.1-2.9,2.9-3.9h0.9v6h18v-56L376,134.6L376,134.6z M374.6,167.3
			c-0.5,1.7-1.3,3.3-2.4,4.8c-1.1,1.5-2.6,2.7-4.4,3.7c-1.8,1-4.1,1.5-6.8,1.5c-2.6,0-4.8-0.5-6.6-1.5c-1.8-1-3.2-2.2-4.4-3.7
			c-1.1-1.5-2-3-2.5-4.7c-0.5-1.7-0.8-3.2-0.8-4.5c0-1.7,0.3-3.3,0.8-5.1c0.5-1.7,1.4-3.3,2.6-4.7c1.2-1.4,2.6-2.6,4.4-3.6
			c1.8-0.9,3.9-1.4,6.3-1.4c2.4,0,4.5,0.4,6.3,1.3c1.8,0.9,3.3,2,4.5,3.4s2.1,3,2.7,4.7s0.9,3.4,0.9,5.1
			C375.4,164.1,375.1,165.6,374.6,167.3z"/>
		<path class="st0" d="M443.6,131.6l-13.2,41.1l-13.7-41.1h-18.1l23.6,60.8c0.2,4.1-2.8,5.5-5.6,6c-2.2,0.4-5.4,0.6-8.2-0.1l0,13.4
			c1.7,1,6.2,1.5,10.5,1.2c11.2-0.7,16.4-10.2,19.5-19.3l23.2-62L443.6,131.6L443.6,131.6z"/>
	</g>
	<g>
		<path class="st0" d="M100.6,188.6l-0.8-2.7c-0.3-1.1-1-2.1-1.8-2.8c-0.8-0.7-1.9-1.1-3-1.2c-1-0.1-1.8-0.9-1.9-1.9l-0.1-0.7
			c-0.2-1.8-1.7-3.2-3.4-3.2H88v-1.9c0-1.8-1.1-3.4-2.7-4l-0.9-0.2c-1.8-8-3.4-17.2-1.6-31.1h3.6c0,0,6.3,0,7.7-0.6
			c1.4-0.6,2.1-1.2,1.7-3c-0.4-1.7-2.4-1.9-2.8-2.9c-0.4-1,0-2-1.3-2.5c-1.4-0.5-3.6-0.3-3.6-0.3l0.3-0.7c0.4-1.2,1.3-2.6,5.1-3.7
			c1-0.3,1-2.1-0.4-2.2c-3.5-0.2-2.3-12.9,1.2-20c0,0,0.1-0.1,0.1-0.1c3.5-3.2,3.9-1.6,5.3-3c0.8-0.7,0.7-2.3-0.1-3.2
			c-0.8-0.9-2.2-0.9-3.1-0.1c-1.1,0.9-0.9,2.9-3.4,4.9c-1.6,0.7-3.5,1.5-5.3,2.3c0-2.6,0.1-4.8,0.2-6.6c0-0.1,0.1-0.1,0.1-0.2
			c0.5-1.1,2-2.5,2.1-2.9c0.3-1-0.3-2-1.3-2.3c-1-0.3-2,0.3-2.3,1.3c-0.1,0.4,0.3,2.1,0.1,3.2c0,0,0,0.1,0,0.1v0.1l0,0
			c-0.5,1-2.8,3.3-5.2,5.4l-2.9-6c0-0.1-0.1-0.3-0.1-0.4c0-2.5,1.5-3.6,1.5-4.7c0-1.2-0.9-2.3-2.1-2.3c-0.1,0-0.3,0-0.4,0
			c-0.2,0-0.3,0-0.5,0c-1.2,0.1-2.1,1.1-2.1,2.3c0,1.1,1.5,2.2,1.5,4.7c0,0.1-0.1,0.2-0.1,0.4l-2.9,6c-2.4-2-4.7-4.3-5.2-5.4v-0.1
			c0,0,0-0.1,0-0.1c-0.2-1.1,0.2-2.9,0.1-3.3c-0.3-1-1.3-1.6-2.3-1.3c-1,0.3-1.6,1.3-1.3,2.3c0.1,0.4,1.6,1.8,2.1,2.9
			c0,0.1,0,0.1,0.1,0.2c0.1,1.8,0.3,4,0.2,6.6c-1.8-0.8-3.7-1.6-5.3-2.3c-2.5-1.9-2.3-4-3.4-4.9c-0.9-0.8-2.3-0.8-3.1,0.1
			c-0.8,0.9-0.9,2.5-0.1,3.2c1.5,1.4,1.9-0.1,5.3,3c0,0,0.1,0.1,0.1,0.1c3.5,7.1,4.7,19.8,1.2,20c-1.5,0.1-1.4,2-0.4,2.2
			c3.8,1,4.7,2.5,5.1,3.7l0.3,0.7c0,0-2.3-0.2-3.6,0.3c-1.3,0.5-0.9,1.5-1.3,2.4c-0.4,1-2.5,1.1-2.8,2.8c-0.4,1.7,0.3,2.4,1.7,3
			c1.4,0.6,7.7,0.6,7.7,0.6h3.6c1.8,13.9,0.3,23.1-1.6,31.1l-0.9,0.2c-1.6,0.6-2.7,2.2-2.7,4v1.8H65c-1.7,0-3.2,1.3-3.4,3.1
			l-0.1,0.7c-0.1,1-0.9,1.8-1.9,1.9c-1.1,0.1-2.1,0.5-3,1.2c-0.8,0.7-1.5,1.6-1.8,2.7l-0.8,2.8c-0.3,0.9,0.4,2,1.3,2h43.9
			C100.2,190.6,100.9,189.5,100.6,188.6z M83.9,125.6c-2.3,0-4.1-2.4-4.1-5.4c0-3,1.8-5.4,4.1-5.4s4.1,2.4,4.1,5.4
			C88,123.2,86.2,125.6,83.9,125.6z M66.7,120.2c0-3,1.8-5.4,4.1-5.4s4.1,2.4,4.1,5.4c0,3-1.8,5.4-4.1,5.4S66.7,123.2,66.7,120.2z
			 M77.3,131.8c-1.6,0-3.3-0.3-4.9-1.3c-1.6-0.9-2.8-3.2-2.8-3.2h15.5c0,0-1.1,1.8-3.1,3.1S78.9,131.8,77.3,131.8z"/>
		<ellipse class="st0" cx="70.8" cy="120.2" rx="4.1" ry="5.4"/>
		<path class="st0" d="M69.7,127.3h15.5c0,0-1.1,1.8-3.1,3.1s-3.2,1.3-4.8,1.3c-1.6,0-3.3-0.3-4.9-1.3
			C70.9,129.6,69.7,127.3,69.7,127.3z"/>
		<ellipse class="st0" cx="83.9" cy="120.2" rx="4.1" ry="5.4"/>
		<g>
			<ellipse class="st1" cx="70.8" cy="120.2" rx="4.1" ry="5.4"/>
			<ellipse class="st0" cx="70.8" cy="120.2" rx="2.1" ry="3.5"/>
			<ellipse class="st1" cx="83.9" cy="120.2" rx="4.1" ry="5.4"/>
			<ellipse class="st0" cx="83.9" cy="120.2" rx="2.1" ry="3.5"/>
			<path class="st1" d="M85.2,127.3c0,0-1.1,1.8-3.1,3.1s-3.2,1.3-4.8,1.3c-1.6,0-3.3-0.3-4.9-1.3c-1.6-0.9-2.8-3.2-2.8-3.2H85.2z"
				/>
		</g>
	</g>
</g>
</svg>
