<?xml version="1.0" encoding="utf-8"?>
<!-- Generator: Adobe Illustrator 19.0.1, SVG Export Plug-In . SVG Version: 6.00 Build 0)  -->
<!DOCTYPE svg PUBLIC "-//W3C//DTD SVG 1.1//EN" "http://www.w3.org/Graphics/SVG/1.1/DTD/svg11.dtd">
<svg version="1.1" id="Layer_1" xmlns="http://www.w3.org/2000/svg" xmlns:xlink="http://www.w3.org/1999/xlink" x="0px" y="0px"
	 viewBox="0 0 407.44 124.34" enable-background="new 0 0 407.44 124.34" xml:space="preserve">
<g>
	<g>
		<path fill="#787878" d="M133.59,64.18c-1-3.67-2.61-7.04-4.84-10.1c-2.23-3.06-5.12-5.58-8.65-7.57s-7.85-2.99-12.93-2.99
			c-4.4,0-10.06,1.23-12.94,2.88c-2.89,1.65-3.17,2.56-4.88,3.56h-0.3v-4h-14v76h17V97.51c0,0.55,0.18,1.22,1.07,2.01
			c0.89,0.79,1.55,1.56,2.96,2.32c1.41,0.76,2.81,1.41,4.7,1.96c1.89,0.55,4.02,0.82,6.63,0.82c4.05,0,7.72-0.79,11.12-2.37
			c3.4-1.58,6.3-3.73,8.78-6.44c2.47-2.72,4.38-5.89,5.75-9.53c1.38-3.64,2.06-7.53,2.06-11.65
			C135.09,71.34,134.59,67.86,133.59,64.18z M117,79.43c-0.65,1.75-1.59,3.32-2.83,4.69c-1.24,1.37-2.73,2.47-4.48,3.29
			c-1.75,0.83-3.76,1.24-6.03,1.24c-2.27,0-4.28-0.41-6.03-1.24c-1.75-0.82-3.25-1.92-4.49-3.29c-1.24-1.38-2.18-2.94-2.83-4.69
			c-0.65-1.75-0.98-3.52-0.98-5.3c0-1.72,0.31-3.43,0.93-5.16c0.62-1.71,1.52-3.28,2.73-4.69c1.2-1.41,2.69-2.56,4.48-3.45
			c1.79-0.89,3.85-1.34,6.18-1.34c2.33,0,4.39,0.45,6.18,1.34c1.79,0.89,3.28,2.05,4.49,3.45c1.2,1.41,2.11,2.97,2.73,4.69
			c0.62,1.72,0.93,3.44,0.93,5.16C117.98,75.91,117.65,77.68,117,79.43z"/>
		<path fill="#787878" d="M186.04,45.96v4h-1.18c-0.55,0-1.27-1-2.16-1.93c-0.89-0.92-2.03-1.38-3.4-2.17
			c-1.38-0.79-2.99-1.24-4.84-1.76c-1.85-0.51-3.95-0.67-6.29-0.67c-3.85,0-7.5,0.76-10.97,2.16c-3.47,1.41-6.51,3.46-9.12,6.1
			c-2.61,2.65-4.71,5.87-6.29,9.65c-1.58,3.78-2.37,8.01-2.37,12.68c0,4.12,0.65,8.02,1.96,11.7c1.31,3.67,3.18,6.92,5.62,9.74
			c2.44,2.82,5.44,5.05,9.01,6.7c3.57,1.65,7.63,2.48,12.16,2.48c1.65,0,3.32-0.15,5-0.46c1.68-0.31,3.28-0.81,4.79-1.49
			c1.51-0.69,2.85-1.81,4.02-2.84c1.17-1.03,2.12-2.87,2.88-3.87h1.18v6h17v-56H186.04z M184.35,78.66
			c-0.48,1.72-1.29,3.32-2.42,4.79c-1.13,1.48-2.61,2.71-4.43,3.71c-1.82,0.99-4.07,1.49-6.75,1.49c-2.61,0-4.81-0.5-6.59-1.49
			c-1.79-1-3.25-2.23-4.38-3.71c-1.13-1.48-1.96-3.04-2.47-4.69c-0.51-1.65-0.77-3.16-0.77-4.53c0-1.65,0.27-3.33,0.82-5.05
			c0.55-1.71,1.41-3.29,2.58-4.74c1.17-1.44,2.63-2.63,4.38-3.55c1.75-0.93,3.86-1.39,6.34-1.39c2.4,0,4.52,0.43,6.34,1.29
			c1.82,0.86,3.33,1.99,4.53,3.4c1.2,1.41,2.09,2.97,2.68,4.69c0.58,1.72,0.88,3.43,0.88,5.15
			C185.06,75.39,184.82,76.94,184.35,78.66z"/>
		<path fill="#787878" d="M239.24,44.4c-1.68,0.58-3.34,1.29-4.4,2.11c-1.06,0.82-2.05,0.9-2.66,1.83
			c-0.62,0.93-1.24,1.62-1.58,1.62h-0.56v-4h-15v56h17V71.24c0-2.13,0.01-3.88,0.67-5.26c0.65-1.37,1.43-2.44,2.63-3.19
			c1.2-0.75,3.11-1.27,4.76-1.55c1.65-0.27,3.95-0.45,5.95-0.52v-17.2C243.04,43.52,240.92,43.81,239.24,44.4z"/>
		<path fill="#787878" d="M253.04,27.67v61.9c0,13.1,0,12.39,0,12.39h16c0,0,0-62,0-65.52c0-10.66,0-14.16,0-14.16L253.04,27.67z"/>
		<path fill="#787878" d="M322.04,45.96v4h-0.87c-0.55,0-1.27-1-2.16-1.93c-0.89-0.92-2.03-1.38-3.4-2.17
			c-1.38-0.79-2.99-1.24-4.84-1.76c-1.86-0.51-3.95-0.67-6.29-0.67c-3.85,0-7.51,0.76-10.97,2.16c-3.47,1.41-6.51,3.46-9.12,6.1
			c-2.61,2.65-4.71,5.87-6.29,9.65c-1.58,3.78-2.37,8.01-2.37,12.68c0,4.12,0.65,8.02,1.96,11.7c1.31,3.67,3.18,6.92,5.62,9.74
			c2.44,2.82,5.44,5.05,9.01,6.7c3.57,1.65,7.63,2.48,12.16,2.48c1.65,0,3.31-0.15,5-0.46c1.68-0.31,3.28-0.81,4.79-1.49
			c1.51-0.69,2.85-1.81,4.02-2.84c1.17-1.03,2.13-2.87,2.89-3.87h0.87v6h18v-56H322.04z M320.65,78.66
			c-0.48,1.72-1.29,3.32-2.42,4.79c-1.13,1.48-2.61,2.71-4.43,3.71c-1.82,0.99-4.07,1.49-6.75,1.49c-2.61,0-4.81-0.5-6.6-1.49
			c-1.79-1-3.25-2.23-4.38-3.71c-1.13-1.48-1.96-3.04-2.47-4.69c-0.52-1.65-0.77-3.16-0.77-4.53c0-1.65,0.27-3.33,0.82-5.05
			c0.55-1.71,1.41-3.29,2.58-4.74c1.17-1.44,2.63-2.63,4.38-3.55c1.75-0.93,3.86-1.39,6.34-1.39c2.4,0,4.52,0.43,6.33,1.29
			c1.82,0.86,3.33,1.99,4.53,3.4c1.2,1.41,2.1,2.97,2.68,4.69c0.58,1.72,0.88,3.43,0.88,5.15
			C321.37,75.39,321.13,76.94,320.65,78.66z"/>
		<path fill="#787878" d="M389.64,42.96l-13.18,41.11l-13.74-41.11H344.6l23.65,60.75c0.24,4.08-2.78,5.51-5.65,6.02
			c-2.22,0.4-5.42,0.63-8.25-0.11l-0.02,13.43c1.66,0.99,6.25,1.48,10.45,1.21c11.25-0.74,16.44-10.16,19.47-19.32l23.2-61.99
			H389.64z"/>
	</g>
	<g>
		<path fill="#787878" d="M46.58,99.89l-0.83-2.7c-0.34-1.11-0.99-2.08-1.82-2.76c-0.83-0.69-1.86-1.13-2.96-1.22
			c-0.97-0.08-1.75-0.88-1.86-1.9l-0.08-0.71c-0.19-1.83-1.66-3.16-3.42-3.16h-1.65l0-1.87c0-1.79-1.09-3.42-2.7-3.99l-0.92-0.19
			c-1.85-8-3.41-17.2-1.59-31.08h3.61c0,0,6.29-0.02,7.73-0.63c1.44-0.6,2.1-1.21,1.74-2.95c-0.36-1.73-2.41-1.9-2.84-2.86
			c-0.43-0.96,0-1.97-1.34-2.46c-1.36-0.49-3.63-0.32-3.63-0.32l0.26-0.72c0.41-1.2,1.34-2.63,5.13-3.66
			c0.96-0.26,1.04-2.14-0.44-2.25c-3.47-0.25-2.29-12.93,1.23-20c0.04-0.03,0.08-0.07,0.12-0.1c3.46-3.16,3.88-1.65,5.34-3.03
			c0.76-0.72,0.69-2.28-0.14-3.18c-0.83-0.9-2.19-0.92-3.12-0.13c-1.07,0.9-0.9,2.95-3.38,4.89c-1.58,0.69-3.55,1.54-5.31,2.31
			c-0.02-2.56,0.11-4.84,0.25-6.58c0.02-0.06,0.05-0.12,0.08-0.18c0.48-1.11,1.99-2.53,2.1-2.94c0.26-1-0.33-2.01-1.33-2.28
			c-0.99-0.26-2.01,0.33-2.27,1.33c-0.1,0.38,0.29,2.09,0.14,3.24c0,0.01-0.01,0.13-0.01,0.14c0,0,0,0.13,0,0.13h0
			c-0.54,1.04-2.8,3.33-5.25,5.37l-2.94-6.01c-0.03-0.13-0.06-0.26-0.09-0.39c-0.01-2.53,1.51-3.6,1.49-4.72
			C25.85,1.1,25,0.07,23.78,0c-0.15-0.01-0.3,0-0.45,0.02C23.18,0,23.03,0,22.87,0c-1.22,0.06-2.07,1.1-2.09,2.32
			c-0.02,1.12,1.5,2.19,1.49,4.72c-0.03,0.12-0.06,0.25-0.09,0.39l-2.94,6.01C16.8,11.4,14.54,9.11,14,8.07c0,0,0-0.13,0-0.13
			c0-0.01-0.01-0.08-0.01-0.08c-0.15-1.14,0.24-2.88,0.14-3.27c-0.26-1-1.28-1.61-2.28-1.34c-1,0.26-1.59,1.27-1.33,2.27
			c0.11,0.41,1.62,1.82,2.1,2.93c0.03,0.06,0.05,0.12,0.08,0.18c0.14,1.75,0.27,4.02,0.25,6.58c-1.76-0.76-3.72-1.62-5.31-2.31
			c-2.48-1.94-2.31-3.99-3.38-4.89c-0.93-0.79-2.3-0.77-3.12,0.13C0.31,9.05,0.24,10.6,1,11.33c1.46,1.38,1.88-0.13,5.34,3.03
			c0.04,0.03,0.08,0.07,0.12,0.1c3.52,7.08,4.7,19.75,1.23,20.01c-1.49,0.11-1.41,1.99-0.45,2.25c3.8,1.03,4.73,2.46,5.13,3.66
			l0.26,0.71c0,0-2.28-0.18-3.63,0.31c-1.34,0.48-0.91,1.47-1.34,2.44c-0.43,0.96-2.48,1.09-2.84,2.82
			c-0.36,1.73,0.3,2.42,1.74,3.03c1.44,0.6,7.73,0.63,7.73,0.63h3.61c1.82,13.87,0.26,23.06-1.59,31.06l-0.92,0.25
			c-1.62,0.57-2.7,2.19-2.7,3.98l0,1.83h-1.66c-1.75,0-3.23,1.32-3.42,3.15l-0.08,0.74c-0.11,1.02-0.89,1.8-1.86,1.88
			c-1.1,0.09-2.13,0.51-2.96,1.2c-0.83,0.69-1.48,1.62-1.83,2.72l-0.83,2.78c-0.3,0.94,0.37,2.02,1.31,2.02h43.9
			C46.22,101.91,46.88,100.83,46.58,99.89z M29.9,36.98c-2.26,0-4.09-2.43-4.09-5.42c0-2.99,1.83-5.42,4.09-5.42
			s4.09,2.43,4.09,5.42C33.99,34.55,32.16,36.98,29.9,36.98z M12.73,31.56c0-2.99,1.83-5.42,4.09-5.42s4.09,2.43,4.09,5.42
			c0,2.99-1.83,5.42-4.09,5.42S12.73,34.55,12.73,31.56z M23.3,43.15c-1.57,0-3.3-0.35-4.86-1.29c-1.56-0.94-2.79-3.19-2.79-3.19
			h15.54c0,0-1.07,1.77-3.1,3.14C26.06,43.18,24.87,43.15,23.3,43.15z"/>
		<ellipse fill="#787878" cx="16.82" cy="31.56" rx="4.09" ry="5.42"/>
		<path fill="#787878" d="M15.65,38.67h15.54c0,0-1.07,1.77-3.1,3.14c-2.03,1.37-3.21,1.34-4.79,1.34c-1.57,0-3.3-0.35-4.86-1.29
			C16.88,40.92,15.65,38.67,15.65,38.67z"/>
		<ellipse fill="#787878" cx="29.9" cy="31.56" rx="4.09" ry="5.42"/>
		<g>
			<ellipse fill="#FFFFFF" cx="16.82" cy="31.56" rx="4.09" ry="5.42"/>
			<ellipse fill="#787878" cx="16.82" cy="31.56" rx="2.1" ry="3.46"/>
			<ellipse fill="#FFFFFF" cx="29.9" cy="31.56" rx="4.09" ry="5.42"/>
			<ellipse fill="#787878" cx="29.9" cy="31.56" rx="2.1" ry="3.46"/>
			<path fill="#FFFFFF" d="M31.18,38.67c0,0-1.07,1.77-3.1,3.14c-2.03,1.37-3.21,1.34-4.79,1.34c-1.57,0-3.3-0.35-4.86-1.29
				c-1.56-0.94-2.79-3.19-2.79-3.19H31.18z"/>
		</g>
	</g>
</g>
</svg>
