<svg xmlns="http://www.w3.org/2000/svg" xmlns:xlink="http://www.w3.org/1999/xlink" width="395.511" height="845.034" viewBox="0 0 395.511 845.034"><defs><path id="a" d="M0 0h395.51v845.034H0z"/></defs><clipPath id="b"><use xlink:href="#a" overflow="visible"/></clipPath><path clip-path="url(#b)" fill="#6E767A" d="M166.462 109.264l-8.51 17.33c-5.15 10.53-17.66 15.12-28.41 10.45-4.95-2.15-11.22-4.615-18.09-7.205.4-23.58-.71-44.558-2.02-60.338-.2-.51-.42-1.024-.63-1.534-3.97-9.24-16.53-20.972-17.43-24.382-2.18-8.26 2.76-16.72 11.02-18.9 8.26-2.18 16.73 2.758 18.9 11.018.84 3.17-2.39 17.41-1.14 26.87.04.06.07.23.1.29.01.02.03.17.04.17h.01c4.68 8 24.85 28.35 46.16 46.23M304.133 43.584c-.89 3.41-13.46 15.14-17.42 24.38-.22.51-.43 1.02-.64 1.53-1.31 15.78-2.42 36.75-2.02 60.33-6.87 2.59-13.142 5.04-18.092 7.19-10.75 4.67-23.25.05-28.408-10.48l-8.51-17.39c5.28-4.43 10.5-9.03 15.42-13.56 14.95-13.75 27.23-26.87 30.75-32.79.01-.01.03-.03.04-.05.03-.06.07-.11.1-.17 1.25-9.46-1.97-23.7-1.14-26.87 2.18-8.26 10.64-13.2 18.9-11.02 8.27 2.18 13.2 10.64 11.02 18.9"/><path clip-path="url(#b)" fill="#878F93" d="M390.913 829.354c2.453 7.796-3.062 15.68-10.87 15.68H15.465c-7.81 0-13.323-7.884-10.87-15.68l6.886-21.91c2.876-9.193 8.233-16.975 15.158-22.687 6.926-5.712 15.42-9.293 24.575-10.018 8.073-.648 14.563-7.266 15.447-15.735l.686-6.334c1.583-15.248 13.81-26.635 28.374-26.635h13.745l-.013-15.066c-.026-14.906 9.01-28.212 22.412-32.946l7.677-2.724c15.37-66.483 28.296-141.265 13.206-259.265h-29.97s-52.21 1.057-64.215-3.943c-12.017-5-17.478-9.464-14.47-23.856 2.995-14.404 20.024-15.45 23.586-23.456 3.548-8.008 0-16.24 11.12-20.25 11.265-4.05 30.168-2.534 30.168-2.534l-2.176-5.923c-3.39-9.946-11.134-28.414-42.648-36.975-7.967-2.163-8.627-17.795 3.694-18.692 28.796-2.084 11.107-100.768-18.138-159.548-.317-.29-.633-.567-.963-.844C20.016 93.764 16.467 106.348 4.37 94.86c-6.304-6.004-5.685-18.93 1.175-26.397 6.86-7.466 18.177-7.625 25.934-1.095 8.916 7.506 7.465 24.51 28.056 40.63 18.996 8.27 52.634 19.456 70.006 27.014 10.75 4.67 23.256.053 28.414-10.473l30.353-62.053c.263-1.108.5-2.176.725-3.205.356-1.728-.12-4.09-.33-5.844-.21-1.807-.527-3.614-.95-5.382-.74-3.073-1.794-6.055-3.1-8.93-2.994-6.636-7.743-10.54-7.743-19.167 0-5.845 5.013-19.96 20.842-19.96s20.842 14.115 20.842 19.96c0 8.626-4.748 12.53-7.743 19.166-1.306 2.875-2.36 5.857-3.1 8.93-.422 1.768-.74 3.575-.95 5.382-.21 1.755-.686 4.116-.33 5.844.226 1.03.462 2.097.727 3.205l30.353 62.052c5.158 10.525 17.663 15.142 28.414 10.472 17.372-7.558 51.01-18.744 70.006-27.015 20.59-16.12 19.14-33.123 28.058-40.63 7.758-6.53 19.074-6.37 25.935 1.096 6.86 7.466 7.48 20.393 1.174 26.396-12.097 11.488-15.645-1.096-44.362 25.154-.33.277-.646.554-.964.844-29.244 58.78-46.934 157.464-18.138 159.548 12.32.897 11.66 16.528 3.694 18.692-31.515 8.56-39.257 27.028-42.648 36.975l-2.176 5.923s18.903-1.517 30.168 2.532c11.12 4.01 7.572 12.24 11.12 20.25 3.562 8.006 20.592 9.048 23.587 23.453 3.008 14.392-2.453 18.863-14.47 23.862-12.005 5-64.215 3.943-64.215 3.943h-29.97c-15.092 118-2.165 192.777 13.203 259.26l7.677 2.727c13.402 4.734 22.438 18.044 22.412 32.95l-.013 15.063h13.745c14.56 0 26.79 11.382 28.373 26.63l.686 6.338c.884 8.47 7.373 15.074 15.446 15.72 9.155.727 17.65 4.286 24.575 9.998s12.283 13.532 15.158 22.727l6.885 21.907z"/><path clip-path="url(#b)" fill="#FFF" d="M145.667 282.71c-19.488 0-35.343-20.73-35.343-46.21s15.855-46.212 35.343-46.212c19.488 0 35.343 20.73 35.343 46.212s-15.855 46.21-35.343 46.21M252.667 282.71c-19.487 0-35.343-20.73-35.343-46.21s15.855-46.212 35.343-46.212c19.488 0 35.344 20.73 35.344 46.212s-15.855 46.21-35.343 46.21"/><path clip-path="url(#b)" fill="#878F93" d="M269.815 236.5c0-15.57-7.678-28.19-17.148-28.19-9.47 0-17.147 12.62-17.147 28.19s7.678 28.19 17.147 28.19c9.47 0 17.148-12.622 17.148-28.19"/><path clip-path="url(#b)" fill="#FFF" d="M135.1 295.034h128.437c-13.044 22-36.918 39.37-64.226 39.37-27.29 0-51.165-17.37-64.21-39.37"/><path clip-path="url(#b)" fill="#878F93" d="M163.12 236.5c0-15.57-7.678-28.19-17.15-28.19-9.47 0-17.146 12.62-17.146 28.19s7.677 28.19 17.147 28.19c9.472 0 17.15-12.622 17.15-28.19"/></svg>