<svg xmlns="http://www.w3.org/2000/svg" xmlns:xlink="http://www.w3.org/1999/xlink" viewBox="0 0 2197.37 639.58"><path fill="#777" d="M844.14 327.053c-4.896-18.017-12.797-34.528-23.748-49.515-10.95-14.987-25.08-27.356-42.43-37.125-17.348-9.77-38.477-14.644-63.384-14.644-21.558 0-49.295 6.872-63.446 14.946-14.15 8.094-15.53 12.284-23.945 18.284h.045v-23h-71v372h82V490.455c0 2.684 1.96 5.97 6.34 9.834 4.38 3.884 8.13 7.665 15.045 11.378 6.893 3.715 14.05 6.893 23.304 9.598 9.255 2.686 19.823 4.037 32.62 4.037 19.862 0 37.9-3.885 54.584-11.615 16.663-7.752 30.932-18.273 43.063-31.564 12.132-13.312 21.478-28.88 28.22-46.723 6.743-17.864 10.084-36.89 10.084-57.093 0-16.17-2.476-33.24-7.35-51.254m-81.336 74.744c-3.2 8.588-7.816 16.254-13.892 22.996-6.056 6.72-13.378 12.11-21.966 16.146-8.59 4.058-18.445 6.075-29.546 6.075-11.122 0-20.978-2.018-29.545-6.076-8.59-4.036-15.91-9.427-21.988-16.147-6.055-6.742-10.693-14.408-13.892-22.996-3.2-8.59-4.788-17.244-4.788-26.004 0-8.416 1.503-16.834 4.552-25.27 3.026-8.397 7.47-16.063 13.376-22.978 5.883-6.89 13.205-12.54 21.966-16.918 8.76-4.38 18.852-6.57 30.318-6.57 11.445 0 21.537 2.19 30.297 6.57 8.76 4.38 16.083 10.028 21.988 16.918 5.883 6.914 10.35 14.58 13.377 22.977 3.027 8.438 4.552 16.855 4.552 25.27 0 8.76-1.61 17.415-4.81 26.005M1101.232 236v23h-5.777c-2.684-3-6.227-5.762-10.607-10.315-4.38-4.53-9.942-7.196-16.662-11.082-6.743-3.866-14.644-6.294-23.748-8.828-9.083-2.512-19.368-3.393-30.813-3.393-18.852 0-36.78 3.65-53.787 10.542-17.006 6.915-31.908 16.93-44.705 29.9-12.797 12.97-23.082 28.756-30.812 47.286-7.75 18.508-11.616 39.254-11.616 62.143 0 20.205 3.2 39.328 9.598 57.344 6.4 18.014 15.567 33.932 27.527 47.738 11.938 13.826 26.69 24.76 44.19 32.832 17.52 8.096 37.382 12.133 59.605 12.133 8.095 0 16.255-.75 24.5-2.273 8.245-1.504 16.082-3.95 23.49-7.322 7.408-3.37 13.98-8.783 19.712-13.83 5.71-5.045 10.414-12.875 14.128-18.875h5.777v29h85V236h-85zm-8.29 162.018c-2.36 8.418-6.312 16.254-11.873 23.488-5.563 7.238-12.8 13.293-21.73 18.19-8.933 4.872-19.948 7.32-33.09 7.32-12.797 0-23.576-2.448-32.315-7.32-8.76-4.897-15.91-10.952-21.472-18.19-5.56-7.234-9.598-14.9-12.13-22.994-2.514-8.074-3.78-15.482-3.78-22.225 0-8.074 1.33-16.318 4.036-24.758 2.683-8.397 6.892-16.147 12.625-23.233 5.733-7.064 12.883-12.883 21.472-17.413 8.59-4.552 18.938-6.828 31.07-6.828 11.788 0 22.138 2.104 31.07 6.312 8.91 4.21 16.32 9.77 22.224 16.685 5.884 6.893 10.264 14.557 13.12 22.975s4.294 16.834 4.294 25.25c0 6.743-1.18 14.322-3.52 22.74M1361.97 230.063c-8.247 2.856-16.333 6.313-21.55 10.35-5.22 4.036-10.013 5.245-13.04 9.798-3.027 4.553-6.062 5.79-7.736 8.79h-1.41v-23h-74v276h82V361.643c0-10.436.31-19.023 3.51-25.766 3.2-6.72 7.114-11.94 13.02-15.652 5.883-3.693 15.23-6.227 23.325-7.58 8.072-1.332 17.144-2.19 29.144-2.535v-84.34c-15.002 0-25.02 1.437-33.265 4.293M1429.232 148.05V512h77V121.63M1768.232 236v23h-4.588c-2.706-3-6.228-5.762-10.608-10.315-4.38-4.53-9.94-7.196-16.662-11.082-6.742-3.866-14.665-6.294-23.748-8.828-9.104-2.512-19.368-3.393-30.812-3.393-18.874 0-36.803 3.65-53.788 10.542-17.027 6.915-31.93 16.93-44.705 29.9-12.817 12.97-23.08 28.756-30.81 47.286-7.752 18.508-11.64 39.254-11.64 62.143 0 20.205 3.2 39.328 9.6 57.344 6.398 18.014 15.59 33.932 27.55 47.738 11.937 13.826 26.667 24.76 44.187 32.832 17.5 8.096 37.383 12.133 59.607 12.133 8.072 0 16.232-.75 24.5-2.273 8.245-1.504 16.082-3.95 23.49-7.322 7.407-3.37 13.956-8.783 19.69-13.83 5.732-5.045 10.435-12.875 14.15-18.875h4.587v29h86V236h-85.998zm-7.122 162.018c-2.362 8.418-6.313 16.254-11.874 23.488-5.54 7.238-12.797 13.293-21.708 18.19-8.933 4.872-19.948 7.32-33.09 7.32-12.796 0-23.575-2.448-32.336-7.32-8.76-4.897-15.91-10.952-21.45-18.19-5.562-7.234-9.598-14.9-12.132-22.994-2.534-8.074-3.78-15.482-3.78-22.225 0-8.074 1.332-16.318 4.038-24.758 2.684-8.397 6.892-16.147 12.625-23.233 5.712-7.064 12.884-12.883 21.472-17.413 8.59-4.552 18.94-6.828 31.07-6.828 11.767 0 22.138 2.104 31.05 6.312 8.93 4.21 16.34 9.77 22.222 16.685 5.905 6.893 10.286 14.557 13.142 22.975s4.294 16.834 4.294 25.25c0 6.743-1.18 14.322-3.544 22.74M2099.36 225l-64.59 201.537L1967.394 225h-88.873l115.928 296.828c1.18 20.012-13.635 26.494-27.72 29.03-10.866 1.952-26.563 2.82-40.434-.786l-.106 65.72c8.138 4.83 30.62 7.2 51.21 5.85 55.163-3.608 80.586-48.855 95.466-93.73L2186.6 225h-87.24z"/><path fill="none" d="M190 12.903h1997.368v609.58H190z"/><defs><path id="a" d="M-2 64.58h447.42V512H-2z"/></defs><clipPath id="b"><use xlink:href="#a" overflow="visible"/></clipPath><path clip-path="url(#b)" fill="#AAA" d="M186.245 184.41l-9.048 18.808c-5.477 11.196-18.778 16.268-30.208 11.3-5.265-2.285-11.93-4.81-19.235-7.564.425-25.07-.755-47.33-2.147-64.106-.213-.542-.447-1.065-.67-1.607-4.22-9.823-17.577-22.286-18.534-25.91-2.317-8.784 2.935-17.773 11.718-20.092 8.782-2.317 17.79 2.937 20.096 11.72.893 3.37-2.542 18.512-1.212 28.57.042.063.074-.52.106-.455.01.02.03-.584.042-.584h.01c4.976 8.738 26.422 30.907 49.08 49.92M332.624 115.338c-.946 3.626-14.312 16.098-18.52 25.923-.235.543-.46 1.085-.682 1.628-1.392 16.778-2.573 39.075-2.147 64.146-7.306 2.755-13.972 5.36-19.234 7.646-11.43 4.965-24.72.053-30.207-11.144l-9.05-18.49c5.616-4.71 11.165-9.602 16.397-14.418 15.897-14.62 28.953-28.57 32.696-34.864.01-.01.03-.032.042-.053.032-.063.074-.116.106-.18 1.33-10.06-2.095-25.2-1.21-28.57 2.316-8.783 11.31-14.035 20.095-11.717 8.79 2.318 14.03 11.313 11.714 20.095"/><path clip-path="url(#b)" fill="#777" d="M376.943 197.504c-31.1 62.5-49.906 167.424-19.286 169.636 13.1.952 12.4 17.572 3.923 19.88-33.504 9.096-41.735 28.732-45.345 39.313l-2.316 6.293s20.098-1.607 32.08 2.692c11.823 4.264 8.048 13.02 11.823 21.53 3.784 8.513 21.89 9.623 25.08 24.94 3.198 15.302-2.613 20.38-15.39 25.693-8.283 3.452-34.603 4.326-52.038 4.52-9.41.095-16.236 0-16.236 0H139.792s-6.825.095-16.245 0c-17.434-.193-43.746-1.067-52.03-4.52-12.776-5.312-18.587-10.225-15.39-25.526 3.182-15.318 21.29-16.505 25.08-25.018 3.776-8.52 0-17.312 11.825-21.577 11.972-4.31 32.07-2.71 32.07-2.71l-2.306-6.308c-3.608-10.575-11.84-30.218-45.345-39.323-8.476-2.3-9.176-18.92 3.924-19.874C111.996 364.926 93.19 260 62.09 197.502c-.332-.314-.673-.603-1.022-.9-30.533-27.91-34.308-14.532-47.17-26.75-6.704-6.378-6.04-20.124 1.25-28.06 7.296-7.942 19.33-8.108 27.58-1.17 9.48 7.987 7.933 26.06 29.823 43.204 14.455 6.292 36.887 14.175 55.238 21.087 7.297 2.753 13.947 5.348 19.2 7.638 11.43 4.964 24.73.053 30.217-11.14l8.53-17.444 23.742-48.534c.28-1.17.533-2.307.77-3.408.375-1.835-.13-4.343-.35-6.214-.228-1.922-.56-3.835-1.014-5.715-.787-3.268-1.905-6.44-3.294-9.5-3.182-7.05-8.232-11.202-8.232-20.378 0-6.213 5.33-21.226 22.162-21.226 16.83 0 22.16 15.014 22.16 21.227 0 9.176-5.05 13.327-8.23 20.38-1.39 3.058-2.518 6.23-3.295 9.498-.455 1.88-.787 3.792-1.014 5.715-.226 1.87-.733 4.38-.35 6.214.237 1.1.49 2.237.77 3.408l23.962 48.99 8.31 16.987c5.488 11.193 18.78 16.103 30.21 11.14 5.25-2.29 11.9-4.884 19.198-7.628 18.35-6.92 40.783-14.804 55.237-21.096 21.9-17.145 20.353-35.216 29.834-43.204 8.25-6.938 20.283-6.772 27.58 1.162 7.29 7.944 7.953 21.69 1.25 28.07-12.862 12.216-16.638-1.163-47.17 26.748-.353.3-.695.587-1.027.902"/><path clip-path="url(#b)" fill="#FFF" d="M164.134 360.854c-20.72 0-37.58-22.042-37.58-49.135s16.86-49.135 37.58-49.135 37.58 22.04 37.58 49.134-16.86 49.134-37.58 49.134M277.903 360.854c-20.72 0-37.58-22.042-37.58-49.135s16.86-49.135 37.58-49.135 37.58 22.04 37.58 49.134-16.86 49.134-37.58 49.134"/><path clip-path="url(#b)" fill="#777" d="M293.514 311.72c0-14.174-6.99-25.664-15.61-25.664-8.622 0-15.61 11.49-15.61 25.663 0 14.174 6.988 25.664 15.61 25.664 8.62 0 15.61-11.49 15.61-25.665"/><path clip-path="url(#b)" fill="#FFF" d="M146.146 388.967h150.067c-15.24 26.89-43.136 46-75.042 46-31.887 0-59.783-19.11-75.024-46"/><path clip-path="url(#b)" fill="#777" d="M180.067 311.72c0-14.174-6.99-25.664-15.61-25.664-8.623 0-15.612 11.49-15.612 25.663 0 14.174 6.99 25.664 15.61 25.664 8.624 0 15.612-11.49 15.612-25.665"/></svg>
