<svg id="page-logo" class="logo" version="1.1" id="Layer_1" xmlns="http://www.w3.org/2000/svg" xmlns:xlink="http://www.w3.org/1999/xlink" x="0px" y="0px"
   width="612px" height="792px" viewBox="0 0 612 792" enable-background="new 0 0 612 792" xml:space="preserve">
<path fill="#CDCCCC" d="M519.293,777.232c0,7.826-77.344,14.176-172.753,14.176c-95.412,0-172.749-6.35-172.749-14.176
  c0-7.821,77.336-14.175,172.749-14.175C441.949,763.058,519.293,769.411,519.293,777.232z"/>
<g>
  <path fill="#5FAC45" d="M358.164,330.398c-1.206-7.876-4.001-15.171-8.328-21.684c-4.247-6.437-10.008-12.18-17.113-17.069
    c-7.017-4.828-15.282-8.59-24.568-11.19c-9.445-2.649-18.267-2.78-26.191-0.397c-4.286,1.292-7.899,3.63-10.846,6.989l87.614,49.69
    C358.663,334.602,358.483,332.484,358.164,330.398z"/>
  <path fill="#5FAC45" d="M271.14,466.389c74.471,33.512,159.143,6.666,189.133-59.955c29.987-66.622-6.067-147.812-80.538-181.314
    c-74.469-33.518-159.145-6.675-189.125,59.944C160.623,351.697,196.679,432.872,271.14,466.389z M229.709,263.567l13.479,7.645
    c1.913-3.823,4.034-7.306,6.407-10.306c5.213-6.57,11.264-11.55,17.973-14.799c6.753-3.245,14.194-5.038,22.139-5.308
    c8.109-0.279,16.548,0.792,25.074,3.17c14.025,3.921,26.334,9.874,36.61,17.683c10.243,7.793,18.54,17.036,24.654,27.474
    c6.085,10.382,9.921,22.05,11.413,34.663c1.106,9.304,0.753,18.915-0.983,28.68l28.342,16.068l-1.872,20.053l-31.517-17.487
    c-1.351,3.766-2.853,7.488-4.594,11.119l-3.983,11.437l45.293,25.176l-3.849,39.28L227.471,354.083
    c-0.025-7.811,0.388-16.6,1.256-26.173c0.853-9.521,4.387-25.67,7.47-37.334l-10.682-5.918L229.709,263.567z"/>
  <path fill="#5FAC45" d="M258.539,330.58l88.379,49.288l4.359-11.592c1.699-3.055,3.169-6.9,4.53-11.374l-92.701-51.4
    c-1.143,5.003-2.004,9.932-2.294,14.663L258.539,330.58z"/>
  <path fill="#5FAC45" d="M68.384,283.842c-2.872,29.289,6.272,57.26,23.742,79.977l83.469-185.444
    C118.694,187.569,73.707,229.479,68.384,283.842z"/>
  <path fill="#5FAC45" d="M587.559,132.47L314.308,9.493c-20.958-9.442-45.595-0.094-55.027,20.859L23.57,554.092
    c-9.444,20.961-0.093,45.593,20.864,55.032l273.251,122.98c20.956,9.425,45.597,0.078,55.032-20.879l235.705-523.716
    C617.859,166.549,608.508,141.906,587.559,132.47z M391.409,69.586c0.99-2.182,3.228-3.285,5.02-2.471l93.539,42.098
    c1.793,0.803,2.458,3.218,1.482,5.385c-0.982,2.183-3.235,3.288-5.017,2.483l-93.54-42.107
    C391.097,74.166,390.433,71.754,391.409,69.586z M263.656,98.389c2.303,1.434,4.689,2.77,7.234,3.916
    c29.411,13.246,63.631,1.874,79.599-25.331l162.401,73.104c-11.383,30.6,2.698,65.205,32.92,78.81
    c2.539,1.143,5.129,2.036,7.733,2.807L385.241,605.623c-2.3-1.434-4.683-2.776-7.229-3.918
    c-30.123-13.564-65.258-1.279-80.685,27.358l-162.463-73.109c9.588-29.911-4.58-62.899-33.907-76.092
    c-2.542-1.143-5.122-2.032-7.729-2.813L263.656,98.389z M222.483,640.188c-5.73,12.737-20.704,18.419-33.439,12.682
    c-12.74-5.731-18.419-20.707-12.69-33.439c5.739-12.747,20.71-18.417,33.451-12.688
    C222.544,612.479,228.219,627.445,222.483,640.188z"/>
  <path fill="#5FAC45" d="M75.335,103.795c2.403,0.558,4.848,1.029,7.376,1.275c29.205,2.862,55.392-16.891,61.243-44.979
    l81.288,7.959l18.401-40.87L93.148,12.443C72.341,10.408,53.822,25.63,51.782,46.436L1.255,562.604l37.052-80.502L75.335,103.795z"
    />
</g>
</svg>